<svg enable-background="new 0 0 183.9 52.7" viewBox="0 0 183.9 52.7" xmlns="http://www.w3.org/2000/svg"><path d="m90.8 13.5h-3.5v11h-2v-11h-3.5v-1.8h9z" fill="#353234"/><path d="m93.8 24c-.7-.3-1.4-.8-2-1.4s-1.1-1.2-1.4-2-.5-1.6-.5-2.5.2-1.7.5-2.5c.3-.7.8-1.4 1.4-2 1.2-1.2 2.8-1.9 4.5-1.9.9 0 1.7.2 2.5.5 1.5.7 2.7 1.9 3.4 3.4.3.8.5 1.6.5 2.5 0 1.7-.7 3.3-1.9 4.5-.6.6-1.3 1-2 1.4-.8.3-1.6.5-2.5.5s-1.7-.2-2.5-.5m-.6-9c-1.7 1.7-1.7 4.5 0 6.2s4.5 1.7 6.2 0 1.7-4.5 0-6.2c-.8-.8-1.9-1.3-3.1-1.3s-2.3.5-3.1 1.3" fill="#353234"/><path d="m51.8 1.5v20.6l-20.3-22.1v8c4.4 5.9 4.4 14 0 19.9v6.5h5.2v-19.3l20.6 22.4v-36z" fill="#b71234"/><path d="m78.9 29.7v4.7h-19.7v-32.9h19.7v4.7h-14.5v8.7h11.9v4.7h-12.1v10.1z" fill="#b71234"/><path d="m16.7 1.5c-9.2-.1-16.6 7.2-16.7 16.3s7.2 16.6 16.3 16.7 16.6-7.2 16.7-16.3v-.2c0-9.1-7.3-16.5-16.3-16.5m0 27.7c-6.2 0-11.2-5-11.2-11.2s5-11.2 11.2-11.2 11.2 5 11.2 11.2-5 11.2-11.2 11.2z" fill="#b71234"/><path d="m156.8 1.5v20.6l-20.3-22.1v8c4.4 5.9 4.4 14 0 19.9v6.4h5.2v-19.2l20.6 22.4v-36z" fill="#b71234"/><path d="m183.9 29.7v4.7h-19.7v-32.8h19.7v4.7h-14.5v8.7h11.9v4.7h-12.1v10.1z" fill="#b71234"/><path d="m121.6 1.5c-9.1-.1-16.6 7.2-16.6 16.3-.1 9.1 7.2 16.6 16.4 16.7 9.1.1 16.6-7.2 16.7-16.4v-.1c-.1-9.1-7.4-16.5-16.5-16.5m.1 27.7c-6.2 0-11.2-5-11.2-11.2s5-11.2 11.2-11.2 11.2 5 11.2 11.2c0 6.2-5.1 11.2-11.2 11.2-.1 0-.1 0 0 0" fill="#b71234"/><g fill="#353234"><path d="m.2 52.2v-13h4.1c1 0 1.9.2 2.7.5s1.5.8 2.1 1.4 1 1.3 1.3 2.1.5 1.6.5 2.5-.2 1.7-.5 2.5-.7 1.5-1.3 2.1-1.2 1-2.1 1.4c-.8.3-1.7.5-2.7.5zm1.1-1h3c.8 0 1.6-.1 2.3-.4s1.3-.7 1.7-1.2c.5-.5.8-1.1 1-1.7.2-.7.4-1.4.4-2.1 0-1-.2-1.9-.6-2.8-.4-.8-1-1.5-1.9-2-.8-.5-1.8-.7-2.9-.7h-3v10.9z"/><path d="m14.2 52.2v-13h1.1v13z"/><path d="m19 48.5c-.3-.8-.5-1.8-.5-2.7 0-1 .2-1.9.5-2.7s.8-1.6 1.4-2.1c.6-.6 1.3-1 2.1-1.4.8-.3 1.7-.5 2.6-.5 2 0 3.6.7 4.9 2.2l-.8.6c-.5-.6-1.1-1-1.8-1.3s-1.5-.5-2.3-.5-1.5.1-2.1.4c-.7.3-1.2.7-1.7 1.2s-.9 1.1-1.1 1.8-.4 1.5-.4 2.3c0 1.1.2 2.1.7 3s1.1 1.6 2 2c.8.5 1.7.7 2.7.7.8 0 1.5-.2 2.2-.5s1.2-.7 1.6-1.1v-3.1h-5v-1h6v4.5c-.6.7-1.3 1.2-2.2 1.6-.8.4-1.8.6-2.8.6-.9 0-1.8-.2-2.6-.5s-1.5-.8-2.1-1.4c-.5-.6-1-1.3-1.3-2.1z"/><path d="m33.3 52.2v-13h1.1v13z"/><path d="m37.2 40.2v-1h9.6v1h-4.3v12h-1.1v-12z"/><path d="m48.3 52.2 5.3-13h1.4l5.3 13h-1.3l-1.3-3.2h-6.9l-1.3 3.2zm2.9-4.2h6.1l-3.1-7.6z"/><path d="m62.4 52.2v-13h1.1v12h6.3v1z"/><path d="m78.1 52.2v-13h1.7l4.4 10.8 4.4-10.8h1.7v13h-1.1v-11.6l-4.7 11.6h-.4l-4.7-11.6v11.6z"/><path d="m92.6 52.2 5.3-13h1.4l5.3 13h-1.3l-1.3-3.2h-6.9l-1.3 3.2zm3-4.2h6.1l-3.1-7.6z"/><path d="m107 52.2v-13h4.8c1.1 0 2.1.3 2.8 1s1.1 1.6 1.1 2.8c0 .8-.2 1.4-.5 2s-.8 1-1.3 1.3-1.1.4-1.8.5l3.8 5.5h-1.3l-3.6-5.4h-2.9v5.4h-1.1zm1.1-6.4h3.6c.9 0 1.6-.3 2.1-.8s.8-1.2.8-2-.3-1.5-.8-2-1.2-.8-2.1-.8h-3.6z"/><path d="m119.1 52.2v-13h1.1v7.1l6.3-7.1h1.4l-5.5 6.2 6.1 6.8h-1.5l-5.4-6.1-1.4 1.6v4.5z"/><path d="m131 52.2v-13h8.2v1h-7.1v4.8h7v1h-7v5.1h7.1v1h-8.2z"/><path d="m141.5 40.2v-1h9.6v1h-4.3v12h-1.1v-12z"/><path d="m153.9 52.2v-13h1.1v13z"/><path d="m158.7 52.2v-13h1.1l8.1 11v-11h1.1v13h-1l-8.2-11.2v11.2z"/><path d="m172.8 48.5c-.3-.8-.5-1.8-.5-2.7 0-1 .2-1.9.5-2.7s.8-1.6 1.4-2.1c.6-.6 1.3-1 2.1-1.4.8-.3 1.7-.5 2.6-.5 2 0 3.6.7 4.9 2.2l-.8.6c-.5-.6-1.1-1-1.8-1.3s-1.5-.5-2.3-.5-1.5.1-2.1.4c-.7.3-1.2.7-1.7 1.2s-.9 1.1-1.1 1.8c-.3.7-.4 1.5-.4 2.3 0 1.1.2 2.1.7 3s1.1 1.6 2 2c.8.5 1.7.7 2.7.7.8 0 1.5-.2 2.2-.5s1.2-.7 1.6-1.1v-3.1h-4.9v-1h6v4.5c-.6.7-1.3 1.2-2.2 1.6-.8.4-1.8.6-2.8.6-.9 0-1.8-.2-2.6-.5s-1.5-.8-2.1-1.4-1-1.3-1.4-2.1z"/></g></svg>