<svg width="100" height="87" viewBox="0 0 100 87" fill="none" xmlns="http://www.w3.org/2000/svg">
<g clip-path="url(#clip0_18_465)">
<path d="M68.823 67.1682C68.3917 67.1678 67.9657 67.0739 67.5749 66.893C67.1842 66.7121 66.8381 66.4485 66.5611 66.1209L51.5906 48.4225V64.2402C51.6028 64.6321 51.5355 65.0225 51.3926 65.3881C51.2496 65.7537 51.0341 66.0872 50.7587 66.3687C50.4833 66.6501 50.1536 66.8739 49.7893 67.0268C49.425 67.1796 49.0334 67.2584 48.6378 67.2584C48.2421 67.2584 47.8505 67.1796 47.4862 67.0268C47.1219 66.8739 46.7922 66.6501 46.5168 66.3687C46.2414 66.0872 46.0259 65.7537 45.883 65.3881C45.74 65.0225 45.6727 64.6321 45.6849 64.2402V40.3776C45.6854 39.7771 45.8723 39.1913 46.2201 38.6996C46.5679 38.2079 47.0598 37.8341 47.6292 37.6288C48.1986 37.4235 48.8179 37.3967 49.4032 37.552C49.9884 37.7073 50.5114 38.0371 50.9011 38.4969L65.8715 56.198V40.3776C65.8715 39.6018 66.1825 38.8577 66.736 38.3092C67.2895 37.7606 68.0402 37.4524 68.823 37.4524C69.6058 37.4524 70.3565 37.7606 70.91 38.3092C71.4636 38.8577 71.7745 39.6018 71.7745 40.3776V64.2402C71.7738 65.0161 71.4627 65.76 70.9094 66.3088C70.3561 66.8577 69.6058 67.1667 68.823 67.1682Z" fill="#0000FF"/>
<path d="M71.9624 32.9771C69.2544 32.9771 66.6071 32.1812 64.3554 30.6901C62.1037 29.199 60.3487 27.0796 59.3124 24.5999C58.2761 22.1203 58.0049 19.3918 58.5332 16.7594C59.0616 14.127 60.3656 11.709 62.2805 9.81115C64.1954 7.9133 66.6352 6.62086 69.2912 6.09724C71.9473 5.57363 74.7003 5.84237 77.2023 6.86947C79.7042 7.89658 81.8426 9.63592 83.3472 11.8675C84.8517 14.0992 85.6547 16.7229 85.6547 19.4068C85.6503 23.0045 84.2063 26.4536 81.6394 28.9976C79.0726 31.5416 75.5925 32.9727 71.9624 32.9771ZM71.9624 11.6896C70.4216 11.6891 68.9152 12.1415 67.6339 12.9895C66.3525 13.8376 65.3537 15.0433 64.7638 16.454C64.1739 17.8648 64.0194 19.4172 64.3198 20.915C64.6203 22.4128 65.3622 23.7886 66.4517 24.8684C67.5413 25.9482 68.9295 26.6835 70.4407 26.9813C71.9519 27.2791 73.5183 27.126 74.9418 26.5413C76.3652 25.9567 77.5817 24.9668 78.4374 23.6968C79.2931 22.4269 79.7495 20.9339 79.749 19.4068C79.7453 17.3617 78.9235 15.4015 77.4639 13.956C76.0043 12.5104 74.0259 11.6974 71.9624 11.6952V11.6896Z" fill="#0000FF"/>
<path d="M97.0513 32.9771C96.6635 32.9775 96.2794 32.9021 95.921 32.7552C95.5626 32.6084 95.2369 32.393 94.9625 32.1213C94.6881 31.8497 94.4705 31.5271 94.322 31.172C94.1735 30.8169 94.097 30.4363 94.097 30.0519V9.98398L92.5218 11.5369C91.9669 12.0843 91.2152 12.3908 90.4323 12.389C89.6493 12.3871 88.8992 12.0771 88.3468 11.5271C87.7945 10.9771 87.4852 10.2322 87.4871 9.45623C87.4889 8.68025 87.8017 7.93678 88.3566 7.38937L94.9687 0.861174C95.3814 0.449525 95.9082 0.168812 96.4823 0.0547354C97.0564 -0.0593412 97.6517 -0.00162629 98.1926 0.220539C98.7334 0.442704 99.1954 0.819281 99.5198 1.30238C99.8441 1.78547 100.016 2.35326 100.014 2.93353V30.0408C100.015 30.4268 99.9399 30.8093 99.7915 31.1662C99.6431 31.5231 99.425 31.8474 99.1496 32.1204C98.8742 32.3933 98.547 32.6095 98.1868 32.7566C97.8267 32.9036 97.4408 32.9786 97.0513 32.9771Z" fill="#0000FF"/>
<path d="M59.3128 2.92518C59.3146 3.31036 59.2396 3.6921 59.0921 4.04845C58.9446 4.4048 58.7274 4.72873 58.4531 5.00161C58.1788 5.27449 57.8528 5.49094 57.4938 5.6385C57.1348 5.78607 56.7499 5.86185 56.3613 5.86148H51.4394V30.063C51.4394 30.8388 51.1284 31.5829 50.5749 32.1314C50.0214 32.68 49.2707 32.9882 48.4879 32.9882C47.7051 32.9882 46.9544 32.68 46.4009 32.1314C45.8474 31.5829 45.5364 30.8388 45.5364 30.063V5.86148H40.6229C39.8401 5.86148 39.0894 5.55329 38.5359 5.00471C37.9823 4.45613 37.6714 3.7121 37.6714 2.93629C37.6714 2.16049 37.9823 1.41645 38.5359 0.867874C39.0894 0.319295 39.8401 0.0111084 40.6229 0.0111084H56.3697C57.1491 0.0133035 57.896 0.320937 58.4473 0.866878C58.9987 1.41282 59.3098 2.15274 59.3128 2.92518Z" fill="#0000FF"/>
<path d="M29.7615 0.027771H5.4573C4.01039 0.0292418 2.62317 0.599556 1.60005 1.61356C0.576925 2.62757 0.00148401 4.00243 0 5.43645V61.7873C0.00148401 63.2213 0.576925 64.5962 1.60005 65.6102C2.62317 66.6242 4.01039 67.1945 5.4573 67.196H29.7615C31.2084 67.1945 32.5956 66.6242 33.6187 65.6102C34.6418 64.5962 35.2173 63.2213 35.2188 61.7873V5.42812C35.2151 3.99554 34.6386 2.62282 33.6158 1.61061C32.5929 0.598406 31.2069 0.0292363 29.7615 0.027771ZM29.2906 58.9788C29.2906 59.2825 29.2302 59.5833 29.1128 59.8639C28.9954 60.1445 28.8234 60.3994 28.6066 60.6141C28.3897 60.8287 28.1323 60.9989 27.849 61.1149C27.5658 61.2309 27.2622 61.2904 26.9557 61.29H8.26303C7.95654 61.2904 7.653 61.2309 7.36974 61.1149C7.08648 60.9989 6.82906 60.8287 6.61222 60.6141C6.39537 60.3994 6.22334 60.1445 6.10597 59.8639C5.9886 59.5833 5.92819 59.2825 5.92819 58.9788V8.10884C5.92819 7.49512 6.17418 6.90654 6.61205 6.47257C7.04991 6.03861 7.64379 5.79481 8.26303 5.79481H26.9557C27.2624 5.79481 27.566 5.85466 27.8492 5.97095C28.1325 6.08724 28.3899 6.25769 28.6067 6.47257C28.8235 6.68745 28.9955 6.94255 29.1129 7.2233C29.2302 7.50405 29.2906 7.80496 29.2906 8.10884V58.9788Z" fill="#0000FF"/>
<path d="M97.0513 67.1682H81.1587C80.3913 67.1447 79.6632 66.8261 79.1288 66.2799C78.5943 65.7336 78.2954 65.0025 78.2954 64.2416C78.2954 63.4807 78.5943 62.7496 79.1288 62.2034C79.6632 61.6571 80.3913 61.3385 81.1587 61.315H97.0513C97.8187 61.3385 98.5468 61.6571 99.0812 62.2034C99.6157 62.7496 99.9146 63.4807 99.9146 64.2416C99.9146 65.0025 99.6157 65.7336 99.0812 66.2799C98.5468 66.8261 97.8187 67.1447 97.0513 67.1682Z" fill="#0000FF"/>
<path d="M97.0514 43.3028H81.1588C80.376 43.3028 79.6253 42.9946 79.0717 42.446C78.5182 41.8974 78.2073 41.1534 78.2073 40.3776C78.2073 39.6018 78.5182 38.8577 79.0717 38.3092C79.6253 37.7606 80.376 37.4524 81.1588 37.4524H97.0514C97.8341 37.4524 98.5849 37.7606 99.1384 38.3092C99.6919 38.8577 100.003 39.6018 100.003 40.3776C100.003 41.1534 99.6919 41.8974 99.1384 42.446C98.5849 42.9946 97.8341 43.3028 97.0514 43.3028Z" fill="#0000FF"/>
<path d="M90.4168 55.2341H81.7922C81.0094 55.2341 80.2587 54.9259 79.7052 54.3773C79.1517 53.8287 78.8407 53.0847 78.8407 52.3089C78.8407 51.5331 79.1517 50.789 79.7052 50.2405C80.2587 49.6919 81.0094 49.3837 81.7922 49.3837H90.4168C91.1996 49.3837 91.9503 49.6919 92.5038 50.2405C93.0573 50.789 93.3683 51.5331 93.3683 52.3089C93.3683 53.0847 93.0573 53.8287 92.5038 54.3773C91.9503 54.9259 91.1996 55.2341 90.4168 55.2341Z" fill="#0000FF"/>
<path d="M4.91627 84.2165H0.109253V75.9409H4.91627V77.3799H1.8779V79.1995H4.70605V80.6357H1.8779V82.7692H4.91627V84.2165Z" fill="#0000FF"/>
<path d="M7.82856 80.9857L5.77402 77.8883H7.73606L8.97496 79.9051L10.2251 77.8883H12.2011L10.1214 80.9857L12.3132 84.2165H10.3316L8.99178 82.0497L7.64357 84.2165H5.68152L7.82856 80.9857Z" fill="#0000FF"/>
<path d="M16.7978 84.3304C16.4595 84.3453 16.1224 84.2794 15.8151 84.1382C15.5078 83.9971 15.2392 83.7848 15.032 83.5192H14.9423C15.0012 84.0498 15.032 84.3526 15.032 84.4359V87H13.2914V77.8883H14.6928L14.9395 78.7217H15.018C15.2076 78.4189 15.4755 78.1719 15.7939 78.0063C16.1122 77.8407 16.4695 77.7626 16.8287 77.78C17.1733 77.7673 17.5158 77.8399 17.825 77.9912C18.1343 78.1425 18.4007 78.3678 18.6001 78.6467C19.0262 79.2245 19.2392 80.0264 19.2392 81.0524C19.2517 81.6529 19.15 82.2504 18.9393 82.8136C18.7755 83.2649 18.4835 83.6595 18.0984 83.9498C17.7167 84.2104 17.2612 84.3437 16.7978 84.3304ZM16.2821 79.1523C16.1049 79.1376 15.9267 79.1655 15.7628 79.2337C15.5988 79.3019 15.4539 79.4084 15.3403 79.544C15.1091 79.9372 15.0018 80.3899 15.032 80.8441V81.0302C15.032 81.708 15.1329 82.1969 15.3375 82.4914C15.4475 82.6403 15.5941 82.7588 15.7634 82.8356C15.9326 82.9124 16.1189 82.945 16.3045 82.9303C17.0856 82.9303 17.4761 82.2932 17.4761 81.0191C17.5083 80.5396 17.4116 80.0604 17.1959 79.6301C17.1028 79.4727 16.967 79.3445 16.804 79.26C16.6409 79.1755 16.4571 79.1382 16.2737 79.1523H16.2821Z" fill="#0000FF"/>
<path d="M23.5726 84.3304C22.544 84.3304 21.7423 84.0526 21.1621 83.497C20.5819 82.9414 20.296 82.1386 20.296 81.1079C20.296 80.0773 20.5763 79.23 21.0977 78.6495C21.3824 78.3551 21.7279 78.125 22.1105 77.975C22.4931 77.8249 22.9039 77.7584 23.3148 77.78C23.7003 77.7565 24.0865 77.8123 24.4492 77.9437C24.8119 78.0752 25.1433 78.2795 25.4226 78.5439C25.6833 78.8286 25.8843 79.1619 26.0137 79.5244C26.1432 79.8869 26.1985 80.2713 26.1766 80.6551V81.4885H22.0591C22.0532 81.9125 22.2105 82.3228 22.4991 82.6358C22.6527 82.7796 22.8345 82.8905 23.0331 82.9617C23.2318 83.0329 23.4431 83.0628 23.6539 83.0497C24.0208 83.052 24.3867 83.0119 24.7443 82.9303C25.1144 82.8419 25.4742 82.7153 25.8178 82.5525V83.8887C25.5069 84.0402 25.1784 84.1531 24.8396 84.2248C24.4222 84.3041 23.9975 84.3395 23.5726 84.3304ZM23.326 78.9995C23.1647 78.9905 23.0035 79.017 22.8537 79.0771C22.704 79.1371 22.5695 79.2292 22.4599 79.3467C22.2311 79.6259 22.1038 79.9733 22.0983 80.3329H24.5425C24.5607 79.9738 24.4404 79.6212 24.2061 79.3467C24.0939 79.2287 23.9569 79.1364 23.8049 79.0765C23.6528 79.0165 23.4894 78.9902 23.326 78.9995ZM22.3225 77.1938V77.041C22.8079 76.5028 23.2565 75.9329 23.6651 75.3354H25.6272V75.4548C25.431 75.652 25.0918 75.9437 24.6153 76.3299C24.1388 76.716 23.7745 77.0049 23.4942 77.1938H22.3225Z" fill="#0000FF"/>
<path d="M31.1574 77.7688C31.354 77.766 31.5503 77.7837 31.7432 77.8216L31.6142 79.4384C31.4453 79.3988 31.2721 79.3802 31.0985 79.3828C30.6269 79.354 30.1622 79.5062 29.8007 79.8079C29.6415 79.9612 29.5175 80.1469 29.4372 80.352C29.3569 80.5572 29.3222 80.7771 29.3355 80.9968V84.2165H27.592V77.8883H28.9122L29.1701 78.9522H29.2542C29.445 78.6029 29.7205 78.306 30.0558 78.0883C30.3834 77.8769 30.7665 77.7658 31.1574 77.7688Z" fill="#0000FF"/>
<path d="M32.8307 76.2521C32.8307 75.6965 33.1446 75.4187 33.7781 75.4187C34.4115 75.4187 34.7255 75.6965 34.7255 76.2521C34.7318 76.3674 34.7139 76.4828 34.6729 76.5908C34.6319 76.6989 34.5686 76.7974 34.4872 76.8799C34.2884 77.0416 34.0345 77.1211 33.7781 77.1022C33.1446 77.1022 32.8307 76.8188 32.8307 76.2521ZM34.6442 84.2165H32.9036V77.8883H34.6442V84.2165Z" fill="#0000FF"/>
<path d="M39.3616 84.3304C38.3357 84.3304 37.5313 84.0526 36.9539 83.497C36.3765 82.9414 36.085 82.1386 36.085 81.1079C36.085 80.0773 36.3512 79.23 36.8866 78.6495C37.1718 78.3549 37.5177 78.1247 37.9008 77.9746C38.2839 77.8246 38.6952 77.7582 39.1065 77.78C39.4915 77.7569 39.8772 77.8128 40.2394 77.9443C40.6016 78.0757 40.9326 78.2799 41.2115 78.5439C41.4728 78.8283 41.6741 79.1615 41.8035 79.5241C41.933 79.8866 41.9881 80.2712 41.9655 80.6551V81.4885H37.848C37.8421 81.9125 37.9995 82.3228 38.2881 82.6358C38.4417 82.7795 38.6234 82.8905 38.8221 82.9617C39.0207 83.0329 39.232 83.0628 39.4429 83.0497C39.8098 83.0522 40.1757 83.0121 40.5332 82.9303C40.9034 82.8419 41.2632 82.7152 41.6067 82.5525V83.8887C41.2967 84.0398 40.9691 84.1527 40.6313 84.2248C40.213 84.304 39.7874 84.3394 39.3616 84.3304ZM39.1177 78.9995C38.956 78.9905 38.7944 79.017 38.6442 79.077C38.494 79.137 38.359 79.2291 38.2488 79.3467C38.0199 79.6257 37.8934 79.9734 37.89 80.3329H40.3426C40.3586 79.9736 40.2376 79.6215 40.0035 79.3467C39.8906 79.2279 39.7527 79.1353 39.5996 79.0752C39.4466 79.0152 39.282 78.9894 39.1177 78.9995Z" fill="#0000FF"/>
<path d="M49.2754 84.2165H47.5348V80.5218C47.5594 80.1624 47.4734 79.804 47.2881 79.494C47.1971 79.3766 47.0778 79.2839 46.9411 79.2242C46.8045 79.1645 46.6549 79.1397 46.5061 79.1523C46.3028 79.1349 46.0984 79.1703 45.9131 79.2551C45.7278 79.3399 45.568 79.471 45.4494 79.6356C45.2327 79.9579 45.1243 80.4922 45.1243 81.2385V84.2165H43.3837V77.8883H44.7123L44.9477 78.6995H45.043C45.2364 78.3946 45.5162 78.153 45.8474 78.005C46.2122 77.8431 46.6083 77.7625 47.0079 77.7689C47.3145 77.7489 47.622 77.7916 47.9113 77.8943C48.2006 77.9971 48.4655 78.1577 48.6896 78.3661C49.1025 78.844 49.3099 79.4634 49.267 80.0912L49.2754 84.2165Z" fill="#0000FF"/>
<path d="M53.662 84.3304C51.6757 84.3304 50.6816 83.2488 50.6797 81.0857C50.6797 80.0107 50.96 79.1912 51.4925 78.6217C52.0251 78.0522 52.8071 77.7689 53.8162 77.7689C54.5033 77.7581 55.1835 77.9055 55.8034 78.1994L55.2877 79.5356C55.0074 79.4273 54.7607 79.3356 54.5225 79.2578C54.2933 79.1898 54.0554 79.1551 53.8162 79.1551C52.9099 79.1551 52.4567 79.7921 52.4567 81.0663C52.4567 82.3053 52.9108 82.922 53.8162 82.922C54.1312 82.9256 54.445 82.8815 54.7467 82.7914C55.0505 82.6941 55.3384 82.5537 55.6016 82.3747V83.8526C55.3434 84.0195 55.0594 84.1434 54.7607 84.2193C54.3999 84.2974 54.0313 84.3347 53.662 84.3304Z" fill="#0000FF"/>
<path d="M59.9629 84.3304C58.9342 84.3304 58.1326 84.0526 57.5524 83.497C56.9722 82.9414 56.6863 82.1386 56.6863 81.108C56.6863 80.0773 56.9666 79.2301 57.4879 78.6495C57.7726 78.3549 58.118 78.1248 58.5007 77.9747C58.8833 77.8246 59.2941 77.7582 59.705 77.78C60.0905 77.7565 60.4767 77.8123 60.8394 77.9437C61.2022 78.0752 61.5336 78.2795 61.8128 78.5439C62.0736 78.8286 62.2745 79.1619 62.404 79.5244C62.5334 79.8869 62.5888 80.2713 62.5668 80.6551V81.4885H58.4577C58.4518 81.9125 58.6092 82.3228 58.8978 82.6358C59.0514 82.7796 59.2332 82.8905 59.4318 82.9617C59.6305 83.0329 59.8418 83.0628 60.0526 83.0497C60.4195 83.052 60.7854 83.0119 61.1429 82.9303C61.5131 82.8419 61.8729 82.7153 62.2165 82.5525V83.8887C61.9056 84.0403 61.577 84.1531 61.2382 84.2248C60.8181 84.3047 60.3906 84.3401 59.9629 84.3304ZM59.7162 78.9995C59.555 78.9905 59.3937 79.017 59.244 79.0771C59.0943 79.1371 58.9598 79.2292 58.8501 79.3467C58.6214 79.6259 58.494 79.9733 58.4886 80.3329H60.9327C60.9509 79.9738 60.8307 79.6212 60.5964 79.3467C60.4851 79.2298 60.3495 79.1382 60.199 79.0783C60.0485 79.0183 59.8866 78.9914 59.7246 78.9995H59.7162Z" fill="#0000FF"/>
<path d="M70.7122 77.2827C70.4122 77.2699 70.1138 77.3313 69.8437 77.4613C69.5736 77.5912 69.3404 77.7857 69.165 78.0272C68.8006 78.5254 68.6184 79.2171 68.6184 80.1023C68.6184 81.9543 69.3163 82.8803 70.7122 82.8803C71.4417 82.8528 72.1616 82.7054 72.8424 82.4441V83.9165C72.1135 84.2087 71.333 84.3532 70.5468 84.3415C69.3322 84.3415 68.4035 83.9711 67.7607 83.2303C67.116 82.5025 66.7965 81.4524 66.7965 80.0884C66.7787 79.3088 66.9407 78.5354 67.2702 77.8272C67.5607 77.205 68.036 76.6855 68.6324 76.3382C69.2658 75.9829 69.9846 75.8043 70.7122 75.8215C71.5606 75.8304 72.396 76.0289 73.1563 76.4021L72.5957 77.83C72.2877 77.6854 71.9724 77.5565 71.6512 77.4438C71.3496 77.3378 71.0321 77.2833 70.7122 77.2827Z" fill="#0000FF"/>
<path d="M76.2199 84.2165H74.4821V75.4104H76.2199V84.2165Z" fill="#0000FF"/>
<path d="M77.9774 76.2521C77.9774 75.6965 78.2913 75.4187 78.9248 75.4187C79.5583 75.4187 79.8722 75.6965 79.8722 76.2521C79.8789 76.3672 79.8614 76.4824 79.8209 76.5905C79.7804 76.6986 79.7177 76.7971 79.6367 76.8799C79.4368 77.0415 79.1821 77.121 78.9248 77.1022C78.2913 77.1022 77.9774 76.8188 77.9774 76.2521ZM79.7937 84.2165H78.0503V77.8883H79.7937V84.2165Z" fill="#0000FF"/>
<path d="M84.5083 84.3304C83.4824 84.3304 82.678 84.0526 82.1006 83.497C81.5232 82.9414 81.2317 82.1386 81.2317 81.1079C81.2317 80.0773 81.498 79.23 82.0333 78.6495C82.3185 78.3549 82.6645 78.1247 83.0476 77.9746C83.4307 77.8246 83.8419 77.7582 84.2532 77.78C84.6386 77.7575 85.0246 77.8137 85.3871 77.9451C85.7497 78.0765 86.0812 78.2803 86.361 78.5439C86.6218 78.8286 86.8227 79.1619 86.9522 79.5244C87.0816 79.8869 87.137 80.2712 87.115 80.6551V81.4885H82.9975C82.9909 81.9121 83.1472 82.3224 83.4348 82.6358C83.5884 82.7795 83.7702 82.8905 83.9688 82.9617C84.1675 83.0329 84.3788 83.0628 84.5896 83.0497C84.9565 83.0522 85.3224 83.0121 85.6799 82.9303C86.0501 82.8419 86.4099 82.7152 86.7535 82.5525V83.8887C86.4436 84.0402 86.1159 84.1531 85.778 84.2248C85.3597 84.304 84.9341 84.3394 84.5083 84.3304ZM84.2645 78.9995C84.1028 78.9905 83.9411 79.017 83.7909 79.077C83.6407 79.137 83.5057 79.2291 83.3955 79.3467C83.1678 79.6263 83.0415 79.9736 83.0368 80.3329H85.4697C85.4852 79.9742 85.3652 79.6226 85.1334 79.3467C85.0217 79.231 84.8865 79.1402 84.7366 79.0804C84.5868 79.0205 84.4259 78.9929 84.2645 78.9995Z" fill="#0000FF"/>
<path d="M94.4221 84.2165H92.6815V80.5218C92.7076 80.1622 92.6215 79.8034 92.4349 79.494C92.3438 79.3766 92.2245 79.2839 92.0879 79.2242C91.9512 79.1645 91.8016 79.1397 91.6529 79.1523C91.4496 79.1352 91.2453 79.1707 91.06 79.2555C90.8748 79.3402 90.7149 79.4712 90.5962 79.6356C90.3794 79.9579 90.271 80.4922 90.271 81.2385V84.2165H88.5304V77.8883H89.859L90.0944 78.6995H90.1925C90.3841 78.3941 90.6632 78.1523 90.9942 78.005C91.359 77.8434 91.755 77.7628 92.1546 77.7689C92.4612 77.7489 92.7688 77.7916 93.0581 77.8943C93.3474 77.9971 93.6123 78.1577 93.8363 78.3661C94.2503 78.8434 94.4578 79.4633 94.4137 80.0912L94.4221 84.2165Z" fill="#0000FF"/>
<path d="M98.9069 82.9553C99.2802 82.9431 99.6496 82.8757 100.003 82.7553V84.0415C99.4947 84.2437 98.9496 84.3384 98.4024 84.3193C97.7072 84.3193 97.1999 84.1443 96.8804 83.7942C96.5636 83.447 96.4039 82.922 96.4039 82.2247V79.1995H95.563V78.4689L96.5216 77.8911L97.0233 76.5549H98.1445V77.9022H99.9299V79.1995H98.1445V82.2553C98.1344 82.3574 98.1478 82.4605 98.1837 82.5567C98.2196 82.6529 98.2771 82.7398 98.3519 82.8108C98.5141 82.922 98.7105 82.9731 98.9069 82.9553Z" fill="#0000FF"/>
</g>
<defs>
<clipPath id="clip0_18_465">
<rect width="100" height="87" fill="white"/>
</clipPath>
</defs>
</svg>
